<svg width="238" height="212" version="1.1" xmlns="http://www.w3.org/2000/svg" desc="Created with imagetracer.js version 1.2.6" ><path fill="rgb(217,245,253)" stroke="rgb(217,245,253)" stroke-width="1" opacity="1" d="M 59.5 2 L 58.5 4 L 59.5 2 Z " /><path fill="rgb(217,245,253)" stroke="rgb(217,245,253)" stroke-width="1" opacity="1" d="M 178.5 2 L 179.5 4 L 178.5 2 Z " /><path fill="rgb(217,245,253)" stroke="rgb(217,245,253)" stroke-width="1" opacity="1" d="M 55.5 5 L 53.5 8 L 55.5 5 Z " /><path fill="rgb(217,245,253)" stroke="rgb(217,245,253)" stroke-width="1" opacity="1" d="M 182.5 5 L 184.5 8 L 182.5 5 Z " /><path fill="rgb(217,245,253)" stroke="rgb(217,245,253)" stroke-width="1" opacity="1" d="M 97.5 8 L 98.5 10 L 97.5 8 Z " /><path fill="rgb(217,245,253)" stroke="rgb(217,245,253)" stroke-width="1" opacity="1" d="M 140.5 8 L 139.5 10 L 140.5 8 Z " /><path fill="rgb(217,245,253)" stroke="rgb(217,245,253)" stroke-width="1" opacity="1" d="M 67.5 10 L 70 10.5 L 67.5 11 L 67.5 10 Z " /><path fill="rgb(217,245,253)" stroke="rgb(217,245,253)" stroke-width="1" opacity="1" d="M 73.5 10 L 76 10.5 L 73.5 11 L 73.5 10 Z " /><path fill="rgb(217,245,253)" stroke="rgb(217,245,253)" stroke-width="1" opacity="1" d="M 100.5 10 L 101.5 12 L 100.5 10 Z " /><path fill="rgb(217,245,253)" stroke="rgb(217,245,253)" stroke-width="1" opacity="1" d="M 137.5 10 L 136.5 12 L 137.5 10 Z " /><path fill="rgb(217,245,253)" stroke="rgb(217,245,253)" stroke-width="1" opacity="1" d="M 162.5 10 L 165 10.5 L 162.5 11 L 162.5 10 Z " /><path fill="rgb(217,245,253)" stroke="rgb(217,245,253)" stroke-width="1" opacity="1" d="M 168.5 10 L 171 10.5 L 168.5 11 L 168.5 10 Z " /><path fill="rgb(217,245,253)" stroke="rgb(217,245,253)" stroke-width="1" opacity="1" d="M 63.5 12 L 61.5 15 L 63.5 12 Z " /><path fill="rgb(217,245,253)" stroke="rgb(217,245,253)" stroke-width="1" opacity="1" d="M 103.5 12 L 104.5 14 L 103.5 12 Z " /><path fill="rgb(217,245,253)" stroke="rgb(217,245,253)" stroke-width="1" opacity="1" d="M 134.5 12 L 133.5 14 L 134.5 12 Z " /><path fill="rgb(217,245,253)" stroke="rgb(217,245,253)" stroke-width="1" opacity="1" d="M 174.5 12 L 176.5 15 L 174.5 12 Z " /><path fill="rgb(217,245,253)" stroke="rgb(217,245,253)" stroke-width="1" opacity="1" d="M 90.5 16 L 91.5 18 L 90.5 16 Z " /><path fill="rgb(217,245,253)" stroke="rgb(217,245,253)" stroke-width="1" opacity="1" d="M 108.5 16 L 109.5 18 L 108.5 16 Z " /><path fill="rgb(217,245,253)" stroke="rgb(217,245,253)" stroke-width="1" opacity="1" d="M 129.5 16 L 128.5 18 L 129.5 16 Z " /><path fill="rgb(217,245,253)" stroke="rgb(217,245,253)" stroke-width="1" opacity="1" d="M 147.5 16 L 146.5 18 L 147.5 16 Z " /><path fill="rgb(217,245,253)" stroke="rgb(217,245,253)" stroke-width="1" opacity="1" d="M 93.5 18 L 94.5 20 L 93.5 18 Z " /><path fill="rgb(217,245,253)" stroke="rgb(217,245,253)" stroke-width="1" opacity="1" d="M 144.5 18 L 143.5 20 L 144.5 18 Z " /><path fill="rgb(217,245,253)" stroke="rgb(217,245,253)" stroke-width="1" opacity="1" d="M 96.5 20 L 97.5 22 L 96.5 20 Z " /><path fill="rgb(217,245,253)" stroke="rgb(217,245,253)" stroke-width="1" opacity="1" d="M 141.5 20 L 140.5 22 L 141.5 20 Z " /><path fill="rgb(217,245,253)" stroke="rgb(217,245,253)" stroke-width="1" opacity="1" d="M 114.5 21 L 119.5 25 L 124 21.5 L 118.5 26 L 114.5 21 Z " /><path fill="rgb(217,245,253)" stroke="rgb(217,245,253)" stroke-width="1" opacity="1" d="M 46.5 22 L 47 24.5 L 46 24.5 L 46.5 22 Z " /><path fill="rgb(217,245,253)" stroke="rgb(217,245,253)" stroke-width="1" opacity="1" d="M 191.5 22 L 192 24.5 L 191 24.5 L 191.5 22 Z " /><path fill="rgb(217,245,253)" stroke="rgb(217,245,253)" stroke-width="1" opacity="1" d="M 100.5 23 L 102.5 26 L 100.5 23 Z " /><path fill="rgb(217,245,253)" stroke="rgb(217,245,253)" stroke-width="1" opacity="1" d="M 137.5 23 L 135.5 26 L 137.5 23 Z " /><path fill="rgb(217,245,253)" stroke="rgb(217,245,253)" stroke-width="1" opacity="1" d="M 56.5 26 L 57 29.5 L 56 29.5 L 56.5 26 Z " /><path fill="rgb(217,245,253)" stroke="rgb(217,245,253)" stroke-width="1" opacity="1" d="M 181.5 26 L 182 29.5 L 181 29.5 L 181.5 26 Z " /><path fill="rgb(217,245,253)" stroke="rgb(217,245,253)" stroke-width="1" opacity="1" d="M 106.5 28 L 112 33.5 L 110.5 35 L 111 33.5 L 106.5 28 Z " /><path fill="rgb(217,245,253)" stroke="rgb(217,245,253)" stroke-width="1" opacity="1" d="M 131.5 28 L 127 33.5 L 127.5 35 L 126 33.5 L 131.5 28 Z " /><path fill="rgb(217,245,253)" stroke="rgb(217,245,253)" stroke-width="1" opacity="1" d="M 45.5 29 L 46 41.5 L 45 41.5 L 45.5 29 Z " /><path fill="rgb(217,245,253)" stroke="rgb(217,245,253)" stroke-width="1" opacity="1" d="M 192.5 29 L 193 41.5 L 192 41.5 L 192.5 29 Z " /><path fill="rgb(217,245,253)" stroke="rgb(217,245,253)" stroke-width="1" opacity="1" d="M 106.5 39 L 104.5 42 L 106.5 39 Z " /><path fill="rgb(217,245,253)" stroke="rgb(217,245,253)" stroke-width="1" opacity="1" d="M 131.5 39 L 133.5 42 L 131.5 39 Z " /><path fill="rgb(217,245,253)" stroke="rgb(217,245,253)" stroke-width="1" opacity="1" d="M 56.5 41 L 57 45.5 L 56 45.5 L 56.5 41 Z " /><path fill="rgb(217,245,253)" stroke="rgb(217,245,253)" stroke-width="1" opacity="1" d="M 118.5 41 L 121 42.5 L 119.5 42 L 117.5 43 L 118.5 41 Z " /><path fill="rgb(217,245,253)" stroke="rgb(217,245,253)" stroke-width="1" opacity="1" d="M 181.5 41 L 182 45.5 L 181 45.5 L 181.5 41 Z " /><path fill="rgb(217,245,253)" stroke="rgb(217,245,253)" stroke-width="1" opacity="1" d="M 101.5 45 L 99.5 48 L 101.5 45 Z " /><path fill="rgb(217,245,253)" stroke="rgb(217,245,253)" stroke-width="1" opacity="1" d="M 136.5 45 L 138.5 48 L 136.5 45 Z " /><path fill="rgb(217,245,253)" stroke="rgb(217,245,253)" stroke-width="1" opacity="1" d="M 113.5 47 L 111.5 50 L 113.5 47 Z " /><path fill="rgb(217,245,253)" stroke="rgb(217,245,253)" stroke-width="1" opacity="1" d="M 124.5 47 L 126.5 50 L 124.5 47 Z " /><path fill="rgb(217,245,253)" stroke="rgb(217,245,253)" stroke-width="1" opacity="1" d="M 46.5 48 L 47 50.5 L 46 50.5 L 46.5 48 Z " /><path fill="rgb(217,245,253)" stroke="rgb(217,245,253)" stroke-width="1" opacity="1" d="M 191.5 48 L 192 50.5 L 191 50.5 L 191.5 48 Z " /><path fill="rgb(217,245,253)" stroke="rgb(217,245,253)" stroke-width="1" opacity="1" d="M 57.5 50 L 58 52.5 L 57 52.5 L 57.5 50 Z " /><path fill="rgb(217,245,253)" stroke="rgb(217,245,253)" stroke-width="1" opacity="1" d="M 97.5 50 L 96.5 52 L 97.5 50 Z " /><path fill="rgb(217,245,253)" stroke="rgb(217,245,253)" stroke-width="1" opacity="1" d="M 140.5 50 L 141.5 52 L 140.5 50 Z " /><path fill="rgb(217,245,253)" stroke="rgb(217,245,253)" stroke-width="1" opacity="1" d="M 180.5 50 L 181 52.5 L 180 52.5 L 180.5 50 Z " /><path fill="rgb(217,245,253)" stroke="rgb(217,245,253)" stroke-width="1" opacity="1" d="M 108.5 53 L 107.5 55 L 108.5 53 Z " /><path fill="rgb(217,245,253)" stroke="rgb(217,245,253)" stroke-width="1" opacity="1" d="M 129.5 53 L 130.5 55 L 129.5 53 Z " /><path fill="rgb(217,245,253)" stroke="rgb(217,245,253)" stroke-width="1" opacity="1" d="M 47.5 54 L 48 56.5 L 47 56.5 L 47.5 54 Z " /><path fill="rgb(217,245,253)" stroke="rgb(217,245,253)" stroke-width="1" opacity="1" d="M 94.5 54 L 93.5 56 L 94.5 54 Z " /><path fill="rgb(217,245,253)" stroke="rgb(217,245,253)" stroke-width="1" opacity="1" d="M 143.5 54 L 144.5 56 L 143.5 54 Z " /><path fill="rgb(217,245,253)" stroke="rgb(217,245,253)" stroke-width="1" opacity="1" d="M 190.5 54 L 191 56.5 L 190 56.5 L 190.5 54 Z " /><path fill="rgb(217,245,253)" stroke="rgb(217,245,253)" stroke-width="1" opacity="1" d="M 105.5 57 L 111 57.5 L 105.5 58 L 105.5 57 Z " /><path fill="rgb(217,245,253)" stroke="rgb(217,245,253)" stroke-width="1" opacity="1" d="M 127.5 57 L 133 57.5 L 127.5 58 L 127.5 57 Z " /><path fill="rgb(217,245,253)" stroke="rgb(217,245,253)" stroke-width="1" opacity="1" d="M 88.5 58 L 92 58.5 L 88.5 59 L 88.5 58 Z " /><path fill="rgb(217,245,253)" stroke="rgb(217,245,253)" stroke-width="1" opacity="1" d="M 146.5 58 L 150 58.5 L 146.5 59 L 146.5 58 Z " /><path fill="rgb(217,245,253)" stroke="rgb(217,245,253)" stroke-width="1" opacity="1" d="M 48.5 59 L 49 61.5 L 48 61.5 L 48.5 59 Z " /><path fill="rgb(217,245,253)" stroke="rgb(217,245,253)" stroke-width="1" opacity="1" d="M 80.5 59 L 84 59.5 L 80.5 60 L 80.5 59 Z " /><path fill="rgb(217,245,253)" stroke="rgb(217,245,253)" stroke-width="1" opacity="1" d="M 155.5 59 L 158 59.5 L 155.5 60 L 155.5 59 Z " /><path fill="rgb(217,245,253)" stroke="rgb(217,245,253)" stroke-width="1" opacity="1" d="M 189.5 59 L 190 61.5 L 189 61.5 L 189.5 59 Z " /><path fill="rgb(217,245,253)" stroke="rgb(217,245,253)" stroke-width="1" opacity="1" d="M 73.5 60 L 76 60.5 L 73.5 61 L 73.5 60 Z " /><path fill="rgb(217,245,253)" stroke="rgb(217,245,253)" stroke-width="1" opacity="1" d="M 162.5 60 L 165 60.5 L 162.5 61 L 162.5 60 Z " /><path fill="rgb(217,245,253)" stroke="rgb(217,245,253)" stroke-width="1" opacity="1" d="M 49.5 64 L 50 65.5 L 47.5 67 L 47.5 66 Q 50 66.7 49.5 64 Z " /><path fill="rgb(217,245,253)" stroke="rgb(217,245,253)" stroke-width="1" opacity="1" d="M 116.5 67 L 122 67.5 L 116.5 68 L 116.5 67 Z " /><path fill="rgb(217,245,253)" stroke="rgb(217,245,253)" stroke-width="1" opacity="1" d="M 97.5 68 L 101 68.5 L 97.5 69 L 97.5 68 Z " /><path fill="rgb(217,245,253)" stroke="rgb(217,245,253)" stroke-width="1" opacity="1" d="M 137.5 68 L 141 68.5 L 137.5 69 L 137.5 68 Z " /><path fill="rgb(217,245,253)" stroke="rgb(217,245,253)" stroke-width="1" opacity="1" d="M 78.5 70 L 81 70.5 L 78.5 71 L 78.5 70 Z " /><path fill="rgb(217,245,253)" stroke="rgb(217,245,253)" stroke-width="1" opacity="1" d="M 157.5 70 L 160 70.5 L 157.5 71 L 157.5 70 Z " /><path fill="rgb(217,245,253)" stroke="rgb(217,245,253)" stroke-width="1" opacity="1" d="M 95.5 71 L 94.5 73 L 95.5 71 Z " /><path fill="rgb(217,245,253)" stroke="rgb(217,245,253)" stroke-width="1" opacity="1" d="M 142.5 71 L 143.5 73 L 142.5 71 Z " /><path fill="rgb(217,245,253)" stroke="rgb(217,245,253)" stroke-width="1" opacity="1" d="M 66.5 72 L 69 72.5 L 66.5 73 L 66.5 72 Z " /><path fill="rgb(217,245,253)" stroke="rgb(217,245,253)" stroke-width="1" opacity="1" d="M 169.5 72 L 172 72.5 L 169.5 73 L 169.5 72 Z " /><path fill="rgb(217,245,253)" stroke="rgb(217,245,253)" stroke-width="1" opacity="1" d="M 22.5 76 L 21.5 78 L 22.5 76 Z " /><path fill="rgb(217,245,253)" stroke="rgb(217,245,253)" stroke-width="1" opacity="1" d="M 215.5 76 L 216.5 78 L 215.5 76 Z " /><path fill="rgb(217,245,253)" stroke="rgb(217,245,253)" stroke-width="1" opacity="1" d="M 90.5 79 L 89.5 81 L 90.5 79 Z " /><path fill="rgb(217,245,253)" stroke="rgb(217,245,253)" stroke-width="1" opacity="1" d="M 147.5 79 L 148.5 81 L 147.5 79 Z " /><path fill="rgb(217,245,253)" stroke="rgb(217,245,253)" stroke-width="1" opacity="1" d="M 13.5 82 L 11.5 85 L 13.5 82 Z " /><path fill="rgb(217,245,253)" stroke="rgb(217,245,253)" stroke-width="1" opacity="1" d="M 224.5 82 L 226.5 85 L 224.5 82 Z " /><path fill="rgb(217,245,253)" stroke="rgb(217,245,253)" stroke-width="1" opacity="1" d="M 87.5 84 L 86.5 86 L 87.5 84 Z " /><path fill="rgb(217,245,253)" stroke="rgb(217,245,253)" stroke-width="1" opacity="1" d="M 116.5 84 L 122 84.5 L 116.5 85 L 116.5 84 Z " /><path fill="rgb(217,245,253)" stroke="rgb(217,245,253)" stroke-width="1" opacity="1" d="M 150.5 84 L 151.5 86 L 150.5 84 Z " /><path fill="rgb(217,245,253)" stroke="rgb(217,245,253)" stroke-width="1" opacity="1" d="M 106.5 88 L 101.5 94 L 106.5 88 Z " /><path fill="rgb(217,245,253)" stroke="rgb(217,245,253)" stroke-width="1" opacity="1" d="M 131.5 88 L 136.5 94 L 131.5 88 Z " /><path fill="rgb(217,245,253)" stroke="rgb(217,245,253)" stroke-width="1" opacity="1" d="M 6.5 89 L 5.5 91 L 6.5 89 Z " /><path fill="rgb(217,245,253)" stroke="rgb(217,245,253)" stroke-width="1" opacity="1" d="M 231.5 89 L 232.5 91 L 231.5 89 Z " /><path fill="rgb(217,245,253)" stroke="rgb(217,245,253)" stroke-width="1" opacity="1" d="M 20.5 90 L 19.5 92 L 20.5 90 Z " /><path fill="rgb(217,245,253)" stroke="rgb(217,245,253)" stroke-width="1" opacity="1" d="M 217.5 90 L 218.5 92 L 217.5 90 Z " /><path fill="rgb(217,245,253)" stroke="rgb(217,245,253)" stroke-width="1" opacity="1" d="M 10.5 103 L 11 107.5 L 10 107.5 L 10.5 103 Z " /><path fill="rgb(217,245,253)" stroke="rgb(217,245,253)" stroke-width="1" opacity="1" d="M 227.5 103 L 228 107.5 L 227 107.5 L 227.5 103 Z " /><path fill="rgb(217,245,253)" stroke="rgb(217,245,253)" stroke-width="1" opacity="1" d="M 97.5 104 L 98 106.5 L 97 106.5 L 97.5 104 Z " /><path fill="rgb(217,245,253)" stroke="rgb(217,245,253)" stroke-width="1" opacity="1" d="M 140.5 104 L 141 106.5 L 140 106.5 L 140.5 104 Z " /><path fill="rgb(217,245,253)" stroke="rgb(217,245,253)" stroke-width="1" opacity="1" d="M 13.5 114 L 15.5 117 L 13.5 114 Z " /><path fill="rgb(217,245,253)" stroke="rgb(217,245,253)" stroke-width="1" opacity="1" d="M 224.5 114 L 222.5 117 L 224.5 114 Z " /><path fill="rgb(217,245,253)" stroke="rgb(217,245,253)" stroke-width="1" opacity="1" d="M 70.5 118 L 70 119.5 L 69.5 121 L 69 119.5 L 70.5 118 Z " /><path fill="rgb(217,245,253)" stroke="rgb(217,245,253)" stroke-width="1" opacity="1" d="M 234.5 118 L 233.5 120 L 234.5 118 Z " /><path fill="rgb(217,245,253)" stroke="rgb(217,245,253)" stroke-width="1" opacity="1" d="M 18.5 119 L 19.5 121 L 18.5 119 Z " /><path fill="rgb(217,245,253)" stroke="rgb(217,245,253)" stroke-width="1" opacity="1" d="M 102.5 119 L 105.5 123 L 102.5 119 Z " /><path fill="rgb(217,245,253)" stroke="rgb(217,245,253)" stroke-width="1" opacity="1" d="M 135.5 119 L 132.5 123 L 135.5 119 Z " /><path fill="rgb(217,245,253)" stroke="rgb(217,245,253)" stroke-width="1" opacity="1" d="M 219.5 119 L 218.5 121 L 219.5 119 Z " /><path fill="rgb(217,245,253)" stroke="rgb(217,245,253)" stroke-width="1" opacity="1" d="M 5.5 121 L 12.5 129 L 5.5 121 Z " /><path fill="rgb(217,245,253)" stroke="rgb(217,245,253)" stroke-width="1" opacity="1" d="M 232.5 121 L 225.5 129 L 232.5 121 Z " /><path fill="rgb(217,245,253)" stroke="rgb(217,245,253)" stroke-width="1" opacity="1" d="M 22.5 122 L 23.5 124 L 22.5 122 Z " /><path fill="rgb(217,245,253)" stroke="rgb(217,245,253)" stroke-width="1" opacity="1" d="M 215.5 122 L 214.5 124 L 215.5 122 Z " /><path fill="rgb(217,245,253)" stroke="rgb(217,245,253)" stroke-width="1" opacity="1" d="M 15.5 130 L 16.5 132 L 15.5 130 Z " /><path fill="rgb(217,245,253)" stroke="rgb(217,245,253)" stroke-width="1" opacity="1" d="M 222.5 130 L 221.5 132 L 222.5 130 Z " /><path fill="rgb(217,245,253)" stroke="rgb(217,245,253)" stroke-width="1" opacity="1" d="M 18.5 132 L 19.5 134 L 18.5 132 Z " /><path fill="rgb(217,245,253)" stroke="rgb(217,245,253)" stroke-width="1" opacity="1" d="M 219.5 132 L 218.5 134 L 219.5 132 Z " /><path fill="rgb(217,245,253)" stroke="rgb(217,245,253)" stroke-width="1" opacity="1" d="M 78.5 133 L 79.5 135 L 78.5 133 Z " /><path fill="rgb(217,245,253)" stroke="rgb(217,245,253)" stroke-width="1" opacity="1" d="M 159.5 133 L 158.5 135 L 159.5 133 Z " /><path fill="rgb(217,245,253)" stroke="rgb(217,245,253)" stroke-width="1" opacity="1" d="M 91.5 134 L 92.5 136 L 91.5 134 Z " /><path fill="rgb(217,245,253)" stroke="rgb(217,245,253)" stroke-width="1" opacity="1" d="M 146.5 134 L 145.5 136 L 146.5 134 Z " /><path fill="rgb(217,245,253)" stroke="rgb(217,245,253)" stroke-width="1" opacity="1" d="M 168.5 139 L 171 139.5 L 168.5 140 L 168.5 139 Z " /><path fill="rgb(217,245,253)" stroke="rgb(217,245,253)" stroke-width="1" opacity="1" d="M 73.5 140 L 76 140.5 L 73.5 141 L 73.5 140 Z " /><path fill="rgb(217,245,253)" stroke="rgb(217,245,253)" stroke-width="1" opacity="1" d="M 162.5 140 L 165 140.5 L 162.5 141 L 162.5 140 Z " /><path fill="rgb(217,245,253)" stroke="rgb(217,245,253)" stroke-width="1" opacity="1" d="M 79.5 141 L 82 141.5 L 79.5 142 L 79.5 141 Z " /><path fill="rgb(217,245,253)" stroke="rgb(217,245,253)" stroke-width="1" opacity="1" d="M 156.5 141 L 159 141.5 L 156.5 142 L 156.5 141 Z " /><path fill="rgb(217,245,253)" stroke="rgb(217,245,253)" stroke-width="1" opacity="1" d="M 98.5 143 L 105 143.5 L 98.5 144 L 98.5 143 Z " /><path fill="rgb(217,245,253)" stroke="rgb(217,245,253)" stroke-width="1" opacity="1" d="M 133.5 143 L 140 143.5 L 133.5 144 L 133.5 143 Z " /><path fill="rgb(217,245,253)" stroke="rgb(217,245,253)" stroke-width="1" opacity="1" d="M 48.5 145 L 50 147.5 L 49 147.5 L 48.5 145 Z " /><path fill="rgb(217,245,253)" stroke="rgb(217,245,253)" stroke-width="1" opacity="1" d="M 189.5 145 L 189 146.5 L 188.5 148 L 188 146.5 L 189.5 145 Z " /><path fill="rgb(217,245,253)" stroke="rgb(217,245,253)" stroke-width="1" opacity="1" d="M 60.5 148 L 60 149.5 L 59.5 151 L 59 149.5 L 60.5 148 Z " /><path fill="rgb(217,245,253)" stroke="rgb(217,245,253)" stroke-width="1" opacity="1" d="M 177.5 148 L 179 150.5 L 178 150.5 L 177.5 148 Z " /><path fill="rgb(217,245,253)" stroke="rgb(217,245,253)" stroke-width="1" opacity="1" d="M 75.5 151 L 78 151.5 L 75.5 152 L 75.5 151 Z " /><path fill="rgb(217,245,253)" stroke="rgb(217,245,253)" stroke-width="1" opacity="1" d="M 160.5 151 L 163 151.5 L 160.5 152 L 160.5 151 Z " /><path fill="rgb(217,245,253)" stroke="rgb(217,245,253)" stroke-width="1" opacity="1" d="M 82.5 152 L 85 152.5 L 82.5 153 L 82.5 152 Z " /><path fill="rgb(217,245,253)" stroke="rgb(217,245,253)" stroke-width="1" opacity="1" d="M 153.5 152 L 156 152.5 L 153.5 153 L 153.5 152 Z " /><path fill="rgb(217,245,253)" stroke="rgb(217,245,253)" stroke-width="1" opacity="1" d="M 90.5 153 L 93 154.5 L 91.5 154 L 90.5 153 Z " /><path fill="rgb(217,245,253)" stroke="rgb(217,245,253)" stroke-width="1" opacity="1" d="M 146.5 153 L 148 153.5 L 145.5 155 L 146.5 153 Z " /><path fill="rgb(217,245,253)" stroke="rgb(217,245,253)" stroke-width="1" opacity="1" d="M 105.5 154 L 133 154.5 L 105.5 155 L 105.5 154 Z " /><path fill="rgb(217,245,253)" stroke="rgb(217,245,253)" stroke-width="1" opacity="1" d="M 47.5 155 L 48 157.5 L 47 157.5 L 47.5 155 Z " /><path fill="rgb(217,245,253)" stroke="rgb(217,245,253)" stroke-width="1" opacity="1" d="M 190.5 155 L 191 157.5 L 190 157.5 L 190.5 155 Z " /><path fill="rgb(217,245,253)" stroke="rgb(217,245,253)" stroke-width="1" opacity="1" d="M 94.5 157 L 95.5 159 L 94.5 157 Z " /><path fill="rgb(217,245,253)" stroke="rgb(217,245,253)" stroke-width="1" opacity="1" d="M 143.5 157 L 142.5 159 L 143.5 157 Z " /><path fill="rgb(217,245,253)" stroke="rgb(217,245,253)" stroke-width="1" opacity="1" d="M 108.5 158 L 109.5 160 L 108.5 158 Z " /><path fill="rgb(217,245,253)" stroke="rgb(217,245,253)" stroke-width="1" opacity="1" d="M 129.5 158 L 128.5 160 L 129.5 158 Z " /><path fill="rgb(217,245,253)" stroke="rgb(217,245,253)" stroke-width="1" opacity="1" d="M 57.5 159 L 58 161.5 L 57 161.5 L 57.5 159 Z " /><path fill="rgb(217,245,253)" stroke="rgb(217,245,253)" stroke-width="1" opacity="1" d="M 180.5 159 L 181 161.5 L 180 161.5 L 180.5 159 Z " /><path fill="rgb(217,245,253)" stroke="rgb(217,245,253)" stroke-width="1" opacity="1" d="M 46.5 161 L 47 163.5 L 46 163.5 L 46.5 161 Z " /><path fill="rgb(217,245,253)" stroke="rgb(217,245,253)" stroke-width="1" opacity="1" d="M 97.5 161 L 98.5 163 L 97.5 161 Z " /><path fill="rgb(217,245,253)" stroke="rgb(217,245,253)" stroke-width="1" opacity="1" d="M 140.5 161 L 139.5 163 L 140.5 161 Z " /><path fill="rgb(217,245,253)" stroke="rgb(217,245,253)" stroke-width="1" opacity="1" d="M 191.5 161 L 192 163.5 L 191 163.5 L 191.5 161 Z " /><path fill="rgb(217,245,253)" stroke="rgb(217,245,253)" stroke-width="1" opacity="1" d="M 112.5 163 L 114.5 166 L 112.5 163 Z " /><path fill="rgb(217,245,253)" stroke="rgb(217,245,253)" stroke-width="1" opacity="1" d="M 125.5 163 L 123.5 166 L 125.5 163 Z " /><path fill="rgb(217,245,253)" stroke="rgb(217,245,253)" stroke-width="1" opacity="1" d="M 100.5 165 L 102.5 168 L 100.5 165 Z " /><path fill="rgb(217,245,253)" stroke="rgb(217,245,253)" stroke-width="1" opacity="1" d="M 137.5 165 L 135.5 168 L 137.5 165 Z " /><path fill="rgb(217,245,253)" stroke="rgb(217,245,253)" stroke-width="1" opacity="1" d="M 56.5 166 L 57 170.5 L 56 170.5 L 56.5 166 Z " /><path fill="rgb(217,245,253)" stroke="rgb(217,245,253)" stroke-width="1" opacity="1" d="M 181.5 166 L 182 170.5 L 181 170.5 L 181.5 166 Z " /><path fill="rgb(217,245,253)" stroke="rgb(217,245,253)" stroke-width="1" opacity="1" d="M 45.5 170 L 46 181.5 L 45 181.5 L 45.5 170 Z " /><path fill="rgb(217,245,253)" stroke="rgb(217,245,253)" stroke-width="1" opacity="1" d="M 192.5 170 L 193 181.5 L 192 181.5 L 192.5 170 Z " /><path fill="rgb(217,245,253)" stroke="rgb(217,245,253)" stroke-width="1" opacity="1" d="M 105.5 171 L 107.5 174 L 105.5 171 Z " /><path fill="rgb(217,245,253)" stroke="rgb(217,245,253)" stroke-width="1" opacity="1" d="M 132.5 171 L 130.5 174 L 132.5 171 Z " /><path fill="rgb(217,245,253)" stroke="rgb(217,245,253)" stroke-width="1" opacity="1" d="M 111.5 178 L 108.5 182 L 111.5 178 Z " /><path fill="rgb(217,245,253)" stroke="rgb(217,245,253)" stroke-width="1" opacity="1" d="M 126.5 178 L 129.5 182 L 126.5 178 Z " /><path fill="rgb(217,245,253)" stroke="rgb(217,245,253)" stroke-width="1" opacity="1" d="M 56.5 182 L 57 184.5 L 56 184.5 L 56.5 182 Z " /><path fill="rgb(217,245,253)" stroke="rgb(217,245,253)" stroke-width="1" opacity="1" d="M 181.5 182 L 182 184.5 L 181 184.5 L 181.5 182 Z " /><path fill="rgb(217,245,253)" stroke="rgb(217,245,253)" stroke-width="1" opacity="1" d="M 103.5 185 L 101.5 188 L 103.5 185 Z " /><path fill="rgb(217,245,253)" stroke="rgb(217,245,253)" stroke-width="1" opacity="1" d="M 134.5 185 L 136.5 188 L 134.5 185 Z " /><path fill="rgb(217,245,253)" stroke="rgb(217,245,253)" stroke-width="1" opacity="1" d="M 118.5 186 L 121 187.5 L 119.5 187 L 117.5 188 L 118.5 186 Z " /><path fill="rgb(217,245,253)" stroke="rgb(217,245,253)" stroke-width="1" opacity="1" d="M 98.5 189 L 97.5 191 L 98.5 189 Z " /><path fill="rgb(217,245,253)" stroke="rgb(217,245,253)" stroke-width="1" opacity="1" d="M 139.5 189 L 140.5 191 L 139.5 189 Z " /><path fill="rgb(217,245,253)" stroke="rgb(217,245,253)" stroke-width="1" opacity="1" d="M 111.5 192 L 109.5 195 L 111.5 192 Z " /><path fill="rgb(217,245,253)" stroke="rgb(217,245,253)" stroke-width="1" opacity="1" d="M 126.5 192 L 128.5 195 L 126.5 192 Z " /><path fill="rgb(217,245,253)" stroke="rgb(217,245,253)" stroke-width="1" opacity="1" d="M 105.5 197 L 104.5 199 L 105.5 197 Z " /><path fill="rgb(217,245,253)" stroke="rgb(217,245,253)" stroke-width="1" opacity="1" d="M 132.5 197 L 133.5 199 L 132.5 197 Z " /><path fill="rgb(217,245,253)" stroke="rgb(217,245,253)" stroke-width="1" opacity="1" d="M 51.5 201 L 52.5 203 L 51.5 201 Z " /><path fill="rgb(217,245,253)" stroke="rgb(217,245,253)" stroke-width="1" opacity="1" d="M 68.5 201 L 75 201.5 L 68.5 202 L 68.5 201 Z " /><path fill="rgb(217,245,253)" stroke="rgb(217,245,253)" stroke-width="1" opacity="1" d="M 163.5 201 L 170 201.5 L 163.5 202 L 163.5 201 Z " /><path fill="rgb(217,245,253)" stroke="rgb(217,245,253)" stroke-width="1" opacity="1" d="M 186.5 201 L 185.5 203 L 186.5 201 Z " /><path fill="rgb(217,245,253)" stroke="rgb(217,245,253)" stroke-width="1" opacity="1" d="M 76.5 211 L 79 211.5 L 76.5 212 L 76.5 211 Z " /><path fill="rgb(217,245,253)" stroke="rgb(217,245,253)" stroke-width="1" opacity="1" d="M 159.5 211 L 162 211.5 L 159.5 212 L 159.5 211 Z " /><path fill="rgb(97,218,251)" stroke="rgb(97,218,251)" stroke-width="1" opacity="1" d="M 66.5 0 L 77.5 0 L 89.5 4 Q 106.5 13 119.5 26 Q 130.9 13.4 146.5 5 L 160.5 0 L 171.5 0 Q 181.4 2.1 186 9.5 Q 190.5 16 192 25.5 L 192 47.5 L 188 66 L 214.5 76 L 231 88.5 Q 238.6 94.9 238 109.5 Q 234 123 223.5 130 L 205.5 140 L 188 146.5 L 192 164.5 L 192 186.5 Q 189.6 200.6 180.5 208 L 170.5 212 L 162.5 212 Q 150.3 209.7 141.5 204 L 118.5 186 L 96.5 204 L 80.5 211 L 67.5 212 Q 57.8 210.2 53 203.5 Q 47.6 196.9 46 186.5 L 46 164.5 L 50 146.5 L 20.5 134 L 4 119.5 L 0 109.5 L 0 102.5 Q 2.8 91.3 10.5 85 L 29.5 73 L 50 65.5 L 46 47.5 L 46 25.5 L 50 12.5 L 57.5 4 L 66.5 0 Z M 68 10 L 64 12 Q 58 17 56 27 L 56 46 L 59 62 L 61 63 L 77 60 L 92 59 Q 100 45 112 34 L 91 16 Q 82 10 68 10 Z M 163 10 L 148 16 L 126 34 Q 138 45 146 59 L 155 59 L 178 63 L 179 62 L 182 46 L 182 27 L 177 15 Q 174 8 163 10 Z M 119 41 L 107 56 L 106 58 Q 110 59 112 57 L 127 57 L 128 58 L 133 58 L 121 43 L 119 41 Z M 117 67 L 116 68 L 97 68 L 76 105 L 76 108 L 80 116 L 95 141 L 99 144 L 140 144 L 147 135 L 162 108 L 162 105 L 156 93 L 141 68 L 117 67 Z M 79 70 L 63 73 Q 65 85 71 93 L 84 71 L 79 70 Z M 155 70 L 168 93 Q 173 85 175 73 L 155 70 Z M 51 76 Q 33 81 21 90 Q 13 95 10 104 L 10 108 L 13 115 L 29 127 L 53 136 Q 57 120 64 108 L 64 105 L 53 78 Q 54 75 51 76 Z M 185 76 L 179 95 L 174 105 L 174 108 Q 181 120 185 136 Q 205 132 219 121 Q 226 117 228 108 Q 229 100 225 98 L 212 86 Q 200 79 185 76 Z M 71 118 Q 65 127 63 139 L 80 142 L 84 142 L 71 118 Z M 168 118 L 155 141 L 155 142 L 175 139 Q 173 127 168 118 Z M 61 148 L 59 150 L 56 167 Q 53 189 62 199 L 69 202 L 79 201 L 92 195 L 112 179 L 93 155 L 92 153 L 72 151 L 61 148 Z M 178 148 L 167 151 L 147 153 L 126 179 L 147 195 L 164 202 L 170 202 L 176 199 L 180 193 L 182 185 L 182 167 L 179 150 L 178 148 Z M 106 154 L 112 164 L 120 170 L 133 155 L 106 154 Z " /><path fill="rgb(97,218,251)" stroke="rgb(97,218,251)" stroke-width="1" opacity="1" d="M 114.5 85 Q 131.7 83.8 137 94.5 Q 141.4 99.7 140 110.5 Q 137.5 119.5 130.5 124 L 122.5 127 L 115.5 127 Q 105.5 125 101 117.5 Q 96.6 112.3 98 101.5 Q 100.4 92.4 107.5 88 L 114.5 85 Z " /><path fill="rgb(255,255,255)" stroke="rgb(255,255,255)" stroke-width="1" opacity="1" d="M 0 0 L 64 0.5 Q 56.6 2.1 53 7.5 L 46 22.5 L 45 41.5 L 46 42.5 L 46 50.5 L 49 66 Q 34.5 69.3 22.5 76 Q 12.2 81.7 5 90.5 L 0.5 100 L 0 0 Z " /><path fill="rgb(255,255,255)" stroke="rgb(255,255,255)" stroke-width="1" opacity="1" d="M 80.5 0 L 158 0.5 L 140.5 8 L 118.5 25 L 97.5 8 Q 90.6 2.9 80.5 1 L 80.5 0 Z " /><path fill="rgb(255,255,255)" stroke="rgb(255,255,255)" stroke-width="1" opacity="1" d="M 174.5 0 L 238 0 L 238 99.5 L 237 99.5 Q 233.6 87.9 224.5 82 Q 209.5 70.8 189 66 L 192 50.5 L 193 29.5 L 190 16.5 L 182.5 5 L 174.5 1 L 174.5 0 Z " /><path fill="rgb(255,255,255)" stroke="rgb(255,255,255)" stroke-width="1" opacity="1" d="M 70.5 10 Q 82.1 10.9 89.5 16 Q 101.9 23.1 111 33.5 L 91.5 58 L 73.5 60 L 60 63 L 57 49.5 L 56 30.5 L 58 20.5 L 64.5 12 L 70.5 10 Z " /><path fill="rgb(255,255,255)" stroke="rgb(255,255,255)" stroke-width="1" opacity="1" d="M 165.5 10 Q 174.6 10.4 178 16.5 L 181 24.5 L 182 40.5 L 178 63 L 164.5 60 L 150.5 59 L 145 56.5 L 127 33.5 Q 136.1 23.1 148.5 16 L 165.5 10 Z " /><path fill="rgb(255,255,255)" stroke="rgb(255,255,255)" stroke-width="1" opacity="1" d="M 118.5 42 L 124 46.5 L 132 56.5 L 106.5 57 L 109 53.5 L 118.5 42 Z " /><path fill="rgb(255,255,255)" stroke="rgb(255,255,255)" stroke-width="1" opacity="1" d="M 101.5 68 L 136.5 68 L 142 70.5 L 155 91.5 L 162 106.5 Q 152.8 126.3 140.5 143 Q 134.3 141.3 132.5 144 L 105.5 144 Q 103.8 141.3 97.5 143 L 96 141.5 Q 84.6 124.9 76 105.5 Q 85.1 85.6 97.5 69 L 101.5 68 Z M 117 84 L 107 88 Q 99 93 97 105 Q 97 114 102 120 Q 106 125 114 127 Q 127 129 133 123 L 138 117 L 141 107 Q 141 98 137 94 Q 132 84 117 84 Z " /><path fill="rgb(255,255,255)" stroke="rgb(255,255,255)" stroke-width="1" opacity="1" d="M 81.5 70 Q 83.8 69.3 83 71.5 L 70.5 93 L 63 74.5 L 64.5 73 L 81.5 70 Z " /><path fill="rgb(255,255,255)" stroke="rgb(255,255,255)" stroke-width="1" opacity="1" d="M 155 70 L 173.5 73 L 175 74.5 L 167.5 93 L 155 70 Z " /><path fill="rgb(255,255,255)" stroke="rgb(255,255,255)" stroke-width="1" opacity="1" d="M 52.5 76 L 64 106.5 L 55 126.5 L 53 135 Q 30.5 130.8 16 117.5 L 11 109.5 L 11 102.5 Q 13.3 95.8 18.5 92 L 37.5 81 L 52.5 76 Z " /><path fill="rgb(255,255,255)" stroke="rgb(255,255,255)" stroke-width="1" opacity="1" d="M 185.5 76 Q 200.6 79.9 212.5 87 L 224 96.5 Q 228.2 100.3 227 109.5 L 220.5 119 Q 206.3 131 185 135 L 183 126.5 L 174 105.5 Q 181.4 92.4 185.5 76 Z " /><path fill="rgb(255,255,255)" stroke="rgb(255,255,255)" stroke-width="1" opacity="1" d="M 0.5 112 Q 3.9 123.1 12.5 129 L 33.5 141 L 47.5 145 L 49 146.5 L 46 161.5 L 45 181.5 L 48 195.5 Q 51.3 204.3 58.5 209 L 65 211.5 L 0 212 L 0.5 112 Z " /><path fill="rgb(255,255,255)" stroke="rgb(255,255,255)" stroke-width="1" opacity="1" d="M 237.5 112 L 238 212 L 173 211.5 Q 182.7 209.2 187 201.5 L 192 188.5 L 193 170.5 L 192 169.5 L 192 161.5 L 189 146.5 L 190.5 145 L 204.5 141 L 218.5 134 L 233 121.5 L 237.5 112 Z " /><path fill="rgb(255,255,255)" stroke="rgb(255,255,255)" stroke-width="1" opacity="1" d="M 70.5 119 L 83 141.5 L 81.5 141 Q 70.4 141.1 63 137.5 L 70.5 119 Z " /><path fill="rgb(255,255,255)" stroke="rgb(255,255,255)" stroke-width="1" opacity="1" d="M 167.5 119 L 175 137.5 L 172.5 139 L 155.5 142 L 155 140.5 L 167.5 119 Z " /><path fill="rgb(255,255,255)" stroke="rgb(255,255,255)" stroke-width="1" opacity="1" d="M 60 149 L 75.5 152 L 89.5 153 L 94 156.5 L 111 178.5 Q 100.9 189.4 87.5 197 L 77.5 201 L 66.5 201 L 60 195.5 L 57 187.5 L 56 171.5 L 60 149 Z " /><path fill="rgb(255,255,255)" stroke="rgb(255,255,255)" stroke-width="1" opacity="1" d="M 174.5 149 Q 178.9 147.5 178 150.5 L 181 162.5 L 182 181.5 L 179 193.5 L 173.5 200 L 171.5 201 L 160.5 201 Q 140 193.5 127 178.5 L 146.5 154 L 168.5 151 L 174.5 149 Z " /><path fill="rgb(255,255,255)" stroke="rgb(255,255,255)" stroke-width="1" opacity="1" d="M 106.5 155 L 132 155.5 L 119.5 170 L 115 166.5 L 106.5 155 Z " /><path fill="rgb(255,255,255)" stroke="rgb(255,255,255)" stroke-width="1" opacity="1" d="M 118.5 187 L 121.5 188 Q 130.4 198.1 142.5 205 L 159 211.5 L 79.5 212 L 79.5 211 L 82.5 211 L 95.5 205 L 118.5 187 Z " /></svg>